<svg width="32" height="32" viewBox="0 0 32 32" fill="none" xmlns="http://www.w3.org/2000/svg">
  <!-- Trade Gheware favicon - Based on ₹100 coin profile picture -->

  <!-- Background -->
  <circle cx="16" cy="16" r="16" fill="#1a472a"/>

  <!-- Gradient definitions -->
  <defs>
    <linearGradient id="goldGrad" x1="0%" y1="0%" x2="100%" y2="100%">
      <stop offset="0%" stop-color="#FFD700"/>
      <stop offset="50%" stop-color="#FFA500"/>
      <stop offset="100%" stop-color="#FF8C00"/>
    </linearGradient>
    <linearGradient id="arrowGrad" x1="50%" y1="100%" x2="50%" y2="0%">
      <stop offset="0%" stop-color="#2e7d32"/>
      <stop offset="100%" stop-color="#4caf50"/>
    </linearGradient>
    <radialGradient id="innerGlow" cx="50%" cy="50%" r="50%">
      <stop offset="0%" stop-color="#FFFACD"/>
      <stop offset="100%" stop-color="#FFD700" stop-opacity="0.5"/>
    </radialGradient>
  </defs>

  <!-- Coin border (simplified dodecagon) -->
  <path
    d="M 16,3 L 22,5 L 27,10 L 29,16 L 27,22 L 22,27 L 16,29 L 10,27 L 5,22 L 3,16 L 5,10 L 10,5 Z"
    fill="url(#goldGrad)"
    stroke="#DAA520"
    stroke-width="0.8"
  />

  <!-- Inner glow circle -->
  <circle cx="16" cy="16" r="10" fill="url(#innerGlow)" opacity="0.7"/>

  <!-- Rupee symbol -->
  <text x="16" y="19" font-size="13" font-weight="bold" fill="#1a472a" text-anchor="middle" font-family="Arial, sans-serif">₹</text>

  <!-- Upward arrow -->
  <path d="M 16 7 L 12 11 L 14 11 L 14 15 L 18 15 L 18 11 L 20 11 Z" fill="url(#arrowGrad)"/>

  <!-- Sparkle -->
  <circle cx="16" cy="5.5" r="1" fill="#FFD700"/>
</svg>
